
<?xml version="1.0" encoding="UTF-8"?>
<svg id="Capa_1" xmlns="http://www.w3.org/2000/svg" xmlns:xlink="http://www.w3.org/1999/xlink" version="1.1" viewBox="0 0 512 512">
  <!-- Generator: Adobe Illustrator 30.1.0, SVG Export Plug-In . SVG Version: 2.1.1 Build 136)  -->
  <defs>
    <style>
      .st0 {
        fill: #65c6f0;
      }

      .st1 {
        fill: url(#Degradado_sin_nombre_2);
      }

      .st2 {
        fill: #f07e25;
      }
    </style>
    <linearGradient id="Degradado_sin_nombre_2" data-name="Degradado sin nombre 2" x1="98.4" y1="416.9" x2="565.9" y2="417.9" gradientTransform="translate(0 514) scale(1 -1)" gradientUnits="userSpaceOnUse">
      <stop offset=".6" stop-color="#f07e25" stop-opacity="0"/>
      <stop offset=".7" stop-color="#f07e25" stop-opacity=".5"/>
      <stop offset=".7" stop-color="#f07e25"/>
    </linearGradient>
  </defs>
  <path class="st1" d="M367,162c-36.9,0-66.9-29.4-66.9-65.5s30-65.5,66.9-65.5,66.9,29.4,66.9,65.5-30,65.5-66.9,65.5ZM367,41.8c-31,0-56.2,24.6-56.2,54.7s25.2,54.7,56.2,54.7,56.2-24.6,56.2-54.7-25.2-54.7-56.2-54.7Z"/>
  <path class="st2" d="M84.4,87.8C29.3,103.3,349.8,6,400.3,58.4c50.5,52.5-19.8,105.3-50.5,93.3-30.8-11.9-210.3-79.4-265.4-63.9Z"/>
  <path class="st0" d="M201.6,232.7c.7-2,1.5-4.1,2.8-5.7,40.4-50.6,80.8-101.3,121.1-151.9,10.3-13,23.7-20.3,40.6-18.8,16.4,1.6,28.7,10.5,35.2,25.4,7.3,16.3,4.1,31.9-6.7,45.3-17.6,22.6-35.7,44.7-53.7,67.4-1.3,1.6-2.6,2.7-4.5,3.9,0,0,.6.9,1.1,1.3,4.4,0,8.8,0,12.8,0,16.4,1.6,28.1,10.1,34.2,24.6.2,1.4,1.9,4.2,3.3,7.5,4.5,13.7.2,19.1,3.2,28.1,3.8,11.9,13.8,9.2,19.2,22.8,4,9.8-.6,12.3,2.8,24.7,3.9,13.3,10.6,15.5,14.2,25.8.8,2.3,10.1,16-4.3,35.3-20.5,26.8-39.4,54.9-64.3,77.4-27.6,25.2-60.6,36.8-97.6,35-50.8-2.1-89.2-25.7-115.7-68.8-10.3-17-16.3-35.4-18.6-55.2-7.6-67.6-15.3-135.2-22.9-202.8-1.5-13.6,6.4-21.3,19.9-19.4,37.4,5.1,67.2,35,72.9,72.1.9,7.9,1.8,15.8,2.7,23.7.9.6,1.7,1.1,2.6,1.7-.1.2-.3.4-.4.5,0,0,0,0,0,0Z"/>
</svg>